<svg version="1.1" xmlns="http://www.w3.org/2000/svg" xmlns:xlink="http://www.w3.org/1999/xlink" width="517" height="59"><defs></defs><g><g transform="scale(1,1)"><path fill="#ffffff" stroke="none" d="M 489 37.5 C 489 30.59644 494.59644 25 501.5 25 C 508.40356 25 514 30.59644 514 37.5 C 514 44.40356 508.40356 50 501.5 50 C 494.59644 50 489 44.40356 489 37.5 Z"></path></g><g transform="scale(1,1)"><path fill="none" stroke="#000000" d="M 482 30.5 C 482 23.59644 487.59644 18 494.5 18 C 501.40356 18 507 23.59644 507 30.5 C 507 37.40356 501.40356 43 494.5 43 C 487.59644 43 482 37.40356 482 30.5 Z" stroke-miterlimit="10"></path></g><g transform="scale(1,1)"><path fill="#000000" stroke="none" d="M 487 30.5 C 487 26.357864 490.357864 23 494.5 23 C 498.642136 23 502 26.357864 502 30.5 C 502 34.642136 498.642136 38 494.5 38 C 490.357864 38 487 34.642136 487 30.5 Z"></path></g><g transform="scale(1,1)"><path fill="#ffffff" stroke="none" d="M 17 34.5 C 17 29.2532944 21.2532944 25 26.5 25 C 31.7467056 25 36 29.2532944 36 34.5 C 36 39.7467056 31.7467056 44 26.5 44 C 21.2532944 44 17 39.7467056 17 34.5 Z"></path></g><g transform="scale(1,1)"><path fill="#000000" stroke="none" d="M 10 27.5 C 10 22.2532944 14.2532944 18 19.5 18 C 24.7467056 18 29 22.2532944 29 27.5 C 29 32.7467056 24.7467056 37 19.5 37 C 14.2532944 37 10 32.7467056 10 27.5 Z"></path></g><g transform="scale(1,1)"><path fill="#C0C0C0" stroke="none" d="M 91 17 L 155 17 Q 165 17 165 27 L 165 46 Q 165 56 155 56 L 91 56 Q 81 56 81 46 L 81 27 Q 81 17 91 17 Z" opacity="0.2"></path></g><g transform="scale(1,1)"><path fill="#ffffff" stroke="none" d="M 84 10 L 148 10 Q 158 10 158 20 L 158 39 Q 158 49 148 49 L 84 49 Q 74 49 74 39 L 74 20 Q 74 10 84 10 Z"></path></g><g transform="scale(1,1)"><path fill="none" stroke="#000000" d="M 84 10 L 148 10 Q 158 10 158 20 L 158 39 Q 158 49 148 49 L 84 49 Q 74 49 74 39 L 74 20 Q 74 10 84 10 Z" stroke-miterlimit="10"></path></g><g transform="scale(1,1)"><g><path fill="none" stroke="none"></path><text fill="#000000" stroke="none" font-family="Arial" font-size="13px" font-style="normal" font-weight="bold" text-decoration="none" x="92" y="29.5">Scanner</text></g></g><g transform="scale(1,1)"><path fill="#C0C0C0" stroke="none" d="M 223 17 L 295 17 Q 305 17 305 27 L 305 46 Q 305 56 295 56 L 223 56 Q 213 56 213 46 L 213 27 Q 213 17 223 17 Z" opacity="0.2"></path></g><g transform="scale(1,1)"><path fill="#ffffff" stroke="none" d="M 216 10 L 288 10 Q 298 10 298 20 L 298 39 Q 298 49 288 49 L 216 49 Q 206 49 206 39 L 206 20 Q 206 10 216 10 Z"></path></g><g transform="scale(1,1)"><path fill="none" stroke="#000000" d="M 216 10 L 288 10 Q 298 10 298 20 L 298 39 Q 298 49 288 49 L 216 49 Q 206 49 206 39 L 206 20 Q 206 10 216 10 Z" stroke-miterlimit="10"></path></g><g transform="scale(1,1)"><g><path fill="none" stroke="none"></path><text fill="#000000" stroke="none" font-family="Arial" font-size="13px" font-style="normal" font-weight="bold" text-decoration="none" x="224" y="29.5">Tokenizer</text></g></g><g transform="scale(1,1)"><path fill="#C0C0C0" stroke="none" d="M 363 17 L 435 17 Q 445 17 445 27 L 445 46 Q 445 56 435 56 L 363 56 Q 353 56 353 46 L 353 27 Q 353 17 363 17 Z" opacity="0.2"></path></g><g transform="scale(1,1)"><path fill="#ffffff" stroke="none" d="M 356 10 L 428 10 Q 438 10 438 20 L 438 39 Q 438 49 428 49 L 356 49 Q 346 49 346 39 L 346 20 Q 346 10 356 10 Z"></path></g><g transform="scale(1,1)"><path fill="none" stroke="#000000" d="M 356 10 L 428 10 Q 438 10 438 20 L 438 39 Q 438 49 428 49 L 356 49 Q 346 49 346 39 L 346 20 Q 346 10 356 10 Z" stroke-miterlimit="10"></path></g><g transform="scale(1,1)"><g><path fill="none" stroke="none"></path><text fill="#000000" stroke="none" font-family="Arial" font-size="13px" font-style="normal" font-weight="bold" text-decoration="none" x="366.5" y="29.5">Compiler</text></g></g><g transform="scale(1,1)"><path fill="none" stroke="#000000" d="M 30 27.226804123711332 L 73 28.113402061855652" stroke-miterlimit="10"></path></g><g transform="scale(1,1)"><path fill="none" stroke="#000000" d="M 62.7527089195857 32.11253015598584 L 73 28.113402061855652 L 62.92626039405354 23.69528364429536" stroke-miterlimit="10"></path></g><g transform="scale(1,1)"><path fill="none" stroke="#000000" d="M 159 29 L 205 29" stroke-miterlimit="10"></path></g><g transform="scale(1,1)"><path fill="none" stroke="#000000" d="M 194.8373251423759 33.209517756016 L 205 29 L 194.8373251423758 24.790482243984002" stroke-miterlimit="10"></path></g><g transform="scale(1,1)"><path fill="none" stroke="#000000" d="M 299 29 L 345 29" stroke-miterlimit="10"></path></g><g transform="scale(1,1)"><path fill="none" stroke="#000000" d="M 334.8373251423759 33.209517756016 L 345 29 L 334.8373251423758 24.790482243984002" stroke-miterlimit="10"></path></g><g transform="scale(1,1)"><path fill="none" stroke="#000000" d="M 439 29.460784313725497 L 481 29.872549019607845" stroke-miterlimit="10"></path></g><g transform="scale(1,1)"><path fill="none" stroke="#000000" d="M 470.79654571075787 33.98223520803464 L 481 29.872549019607845 L 470.8790813081646 25.563604272543046" stroke-miterlimit="10"></path></g></g></svg>