<svg version="1.1" xmlns="http://www.w3.org/2000/svg" xmlns:xlink="http://www.w3.org/1999/xlink" width="647" height="228"><defs></defs><g><g transform="scale(1,1)"><rect fill="#C0C0C0" stroke="none" x="569" y="17" width="65" height="44" opacity="0.2"></rect></g><g transform="scale(1,1)"><rect fill="#ffffff" stroke="none" x="562" y="10" width="65" height="44"></rect></g><g transform="scale(1,1)"><path fill="none" stroke="#000000" d="M 562 10 L 627 10 L 627 54 L 562 54 L 562 10 Z" stroke-miterlimit="10"></path></g><g transform="scale(1,1)"><g><path fill="none" stroke="none"></path><text fill="#000000" stroke="none" font-family="Arial" font-size="13px" font-style="normal" font-weight="bold" text-decoration="none" x="583" y="29.5">Volt</text></g></g><g transform="scale(1,1)"><rect fill="#C0C0C0" stroke="none" x="561" y="181" width="83" height="44" opacity="0.2"></rect></g><g transform="scale(1,1)"><rect fill="#ffffff" stroke="none" x="554" y="174" width="83" height="44"></rect></g><g transform="scale(1,1)"><path fill="none" stroke="#000000" d="M 554 174 L 637 174 L 637 218 L 554 218 L 554 174 Z" stroke-miterlimit="10"></path></g><g transform="scale(1,1)"><g><path fill="none" stroke="none"></path><text fill="#000000" stroke="none" font-family="Arial" font-size="13px" font-style="normal" font-weight="bold" text-decoration="none" x="570" y="193.5">Compiler</text></g></g><g transform="scale(1,1)"><rect fill="#C0C0C0" stroke="none" x="265" y="17" width="69" height="44" opacity="0.2"></rect></g><g transform="scale(1,1)"><rect fill="#ffffff" stroke="none" x="258" y="10" width="69" height="44"></rect></g><g transform="scale(1,1)"><path fill="none" stroke="#000000" d="M 258 10 L 327 10 L 327 54 L 258 54 L 258 10 Z" stroke-miterlimit="10"></path></g><g transform="scale(1,1)"><g><path fill="none" stroke="none"></path><text fill="#000000" stroke="none" font-family="Arial" font-size="13px" font-style="normal" font-weight="bold" text-decoration="none" x="272.5" y="29.5">Engine</text></g></g><g transform="scale(1,1)"><rect fill="#C0C0C0" stroke="none" x="17" y="17" width="88" height="44" opacity="0.2"></rect></g><g transform="scale(1,1)"><rect fill="#ffffff" stroke="none" x="10" y="10" width="88" height="44"></rect></g><g transform="scale(1,1)"><path fill="none" stroke="#000000" d="M 10 10 L 98 10 L 98 54 L 10 54 L 10 10 Z" stroke-miterlimit="10"></path></g><g transform="scale(1,1)"><g><path fill="none" stroke="none"></path><text fill="#000000" stroke="none" font-family="Arial" font-size="13px" font-style="normal" font-weight="bold" text-decoration="none" x="26.5" y="29.5">Injectable</text></g></g><g transform="scale(1,1)"><path fill="none" stroke="#000000" d="M 257 32 L 99 32" stroke-miterlimit="10"></path></g><g transform="scale(1,1)"><path fill="#FFFFFF" stroke="none" d="M 119.32534971524831 23.580964487968032 L 99 32 L 119.32534971524831 40.41903551203197"></path></g><g transform="scale(1,1)"><path fill="none" stroke="#000000" d="M 119.32534971524831 23.580964487968032 L 99 32 L 119.32534971524831 40.41903551203197 L 119.32534971524831 23.580964487968032" stroke-miterlimit="10"></path></g><g transform="scale(1,1)"><path fill="none" stroke="#000000" d="M 561 32 L 328 32" stroke-miterlimit="10"></path></g><g transform="scale(1,1)"><path fill="#FFFFFF" stroke="none" d="M 348.3253497152483 23.580964487968032 L 328 32 L 348.3253497152483 40.41903551203197"></path></g><g transform="scale(1,1)"><path fill="none" stroke="#000000" d="M 348.3253497152483 23.580964487968032 L 328 32 L 348.3253497152483 40.41903551203197 L 348.3253497152483 23.580964487968032" stroke-miterlimit="10"></path></g><g transform="scale(1,1)"><path fill="none" stroke="#000000" d="M 594.859756097561 173 L 594.140243902439 55" stroke-miterlimit="10"></path></g><g transform="scale(1,1)"><path fill="#FFFFFF" stroke="none" d="M 598.4116497828438 65.13681862345595 L 594.140243902439 55 L 589.9927707773695 65.1881532515381 L 594.2743877501747 76.99959102865586"></path></g><g transform="scale(1,1)"><path fill="none" stroke="#000000" d="M 598.4116497828438 65.13681862345595 L 594.140243902439 55 L 589.9927707773695 65.1881532515381 L 594.2743877501747 76.99959102865586 L 598.4116497828438 65.13681862345595" stroke-miterlimit="10"></path></g><g transform="scale(1,1)"><g><path fill="none" stroke="none"></path><text fill="#000000" stroke="none" font-family="Arial" font-size="13px" font-style="normal" font-weight="normal" text-decoration="none" x="521" y="115">#_compiler</text></g></g><g transform="scale(1,1)"><g><path fill="none" stroke="none"></path><text fill="#000000" stroke="none" font-family="Arial" font-size="13px" font-style="normal" font-weight="normal" text-decoration="none" x="600.859756097561" y="158">0..1</text></g></g><g transform="scale(1,1)"><g><path fill="none" stroke="none"></path><text fill="#000000" stroke="none" font-family="Arial" font-size="13px" font-style="normal" font-weight="normal" text-decoration="none" x="603.140243902439" y="83">1</text></g></g><g transform="scale(1,1)"><rect fill="#C0C0C0" stroke="none" x="265" y="181" width="69" height="44" opacity="0.2"></rect></g><g transform="scale(1,1)"><rect fill="#ffffff" stroke="none" x="258" y="174" width="69" height="44"></rect></g><g transform="scale(1,1)"><path fill="none" stroke="#000000" d="M 258 174 L 327 174 L 327 218 L 258 218 L 258 174 Z" stroke-miterlimit="10"></path></g><g transform="scale(1,1)"><g><path fill="none" stroke="none"></path><text fill="#000000" stroke="none" font-family="Arial" font-size="13px" font-style="normal" font-weight="bold" text-decoration="none" x="278.5" y="193.5">View</text></g></g><g transform="scale(1,1)"><path fill="none" stroke="#000000" d="M 292 55 L 292 173" stroke-miterlimit="10"></path></g><g transform="scale(1,1)"><path fill="#FFFFFF" stroke="none" d="M 287.790482243984 162.83732514237585 L 292 173 L 296.209517756016 162.83732514237585 L 292 151"></path></g><g transform="scale(1,1)"><path fill="none" stroke="#000000" d="M 287.790482243984 162.83732514237585 L 292 173 L 296.209517756016 162.83732514237585 L 292 151 L 287.790482243984 162.83732514237585" stroke-miterlimit="10"></path></g><g transform="scale(1,1)"><g><path fill="none" stroke="none"></path><text fill="#000000" stroke="none" font-family="Arial" font-size="13px" font-style="normal" font-weight="normal" text-decoration="none" x="169" y="114">#_registeredEngines</text></g></g><g transform="scale(1,1)"><g><path fill="none" stroke="none"></path><text fill="#000000" stroke="none" font-family="Arial" font-size="13px" font-style="normal" font-weight="normal" text-decoration="none" x="297" y="82">0..*</text></g></g><g transform="scale(1,1)"><g><path fill="none" stroke="none"></path><text fill="#000000" stroke="none" font-family="Arial" font-size="13px" font-style="normal" font-weight="normal" text-decoration="none" x="298" y="158">1</text></g></g><g transform="scale(1,1)"><path fill="none" stroke="#000000" d="M 257 195.70588235294116 L 54 194 L 54 55" stroke-miterlimit="10"></path></g><g transform="scale(1,1)"><path fill="#FFFFFF" stroke="none" d="M 62.41903551203197 75.32534971524831 L 54 55 L 45.58096448796803 75.32534971524831"></path></g><g transform="scale(1,1)"><path fill="none" stroke="#000000" d="M 62.41903551203197 75.32534971524831 L 54 55 L 45.58096448796803 75.32534971524831 L 62.41903551203197 75.32534971524831" stroke-miterlimit="10"></path></g></g></svg>