<svg version="1.1" xmlns="http://www.w3.org/2000/svg" xmlns:xlink="http://www.w3.org/1999/xlink" width="355" height="150"><defs></defs><g><g transform="scale(1,1)"><rect fill="#C0C0C0" stroke="none" x="17" y="17" width="335" height="130" opacity="0.2"></rect></g><g transform="scale(1,1)"><rect fill="#ffffff" stroke="none" x="10" y="10" width="335" height="130"></rect></g><g transform="scale(1,1)"><path fill="none" stroke="#000000" d="M 10 10 L 345 10 L 345 140 L 10 140 L 10 10 Z" stroke-miterlimit="10"></path></g><g transform="scale(1,1)"><path fill="none" stroke="#000000" d="M 10 35 L 345 35" stroke-miterlimit="10"></path></g><g transform="scale(1,1)"><path fill="none" stroke="#000000" d="M 10 73 L 345 73" stroke-miterlimit="10"></path></g><g transform="scale(1,1)"><g><path fill="none" stroke="none"></path><text fill="#000000" stroke="none" font-family="Arial" font-size="13px" font-style="normal" font-weight="bold" text-decoration="none" x="164.5" y="29.5">Role</text></g></g><g transform="scale(1,1)"><g><path fill="none" stroke="none"></path><text fill="#000000" stroke="none" font-family="Arial" font-size="13px" font-style="normal" font-weight="normal" text-decoration="none" x="15" y="52.5">#_name: string|null</text></g></g><g transform="scale(1,1)"><g><path fill="none" stroke="none"></path><text fill="#000000" stroke="none" font-family="Arial" font-size="13px" font-style="normal" font-weight="normal" text-decoration="none" x="15" y="67.5">#description: string|null</text></g></g><g transform="scale(1,1)"><g><path fill="none" stroke="none"></path><text fill="#000000" stroke="none" font-family="Arial" font-size="13px" font-style="normal" font-weight="normal" text-decoration="none" x="15" y="90.5">+__construct(name: string, description: string|null = null)</text></g></g><g transform="scale(1,1)"><g><path fill="none" stroke="none"></path><text fill="#000000" stroke="none" font-family="Arial" font-size="13px" font-style="normal" font-weight="normal" text-decoration="none" x="15" y="105.5">+getName(): string</text></g></g><g transform="scale(1,1)"><g><path fill="none" stroke="none"></path><text fill="#000000" stroke="none" font-family="Arial" font-size="13px" font-style="normal" font-weight="normal" text-decoration="none" x="15" y="120.5">+getDescription(): string|null</text></g></g><g transform="scale(1,1)"><g><path fill="none" stroke="none"></path><text fill="#000000" stroke="none" font-family="Arial" font-size="13px" font-style="normal" font-weight="normal" text-decoration="none" x="15" y="135.5">+__toString(): string</text></g></g></g></svg>