<svg version="1.1" xmlns="http://www.w3.org/2000/svg" xmlns:xlink="http://www.w3.org/1999/xlink" width="427" height="263"><defs></defs><g><g transform="scale(1,1)"><rect fill="#C0C0C0" stroke="none" x="161" y="17" width="67" height="32" opacity="0.2"></rect></g><g transform="scale(1,1)"><rect fill="#ffffff" stroke="none" x="154" y="10" width="67" height="32"></rect></g><g transform="scale(1,1)"><path fill="none" stroke="#000000" d="M 154 10 L 221 10 L 221 42 L 154 42 L 154 10 Z" stroke-miterlimit="10"></path></g><g transform="scale(1,1)"><g><path fill="none" stroke="none"></path><text fill="#000000" stroke="none" font-family="Arial" font-size="13px" font-style="italic" font-weight="bold" text-decoration="none" x="165" y="29.5">Adapter</text></g></g><g transform="scale(1,1)"><rect fill="#C0C0C0" stroke="none" x="337" y="217" width="56" height="32" opacity="0.2"></rect></g><g transform="scale(1,1)"><rect fill="#ffffff" stroke="none" x="330" y="210" width="56" height="32"></rect></g><g transform="scale(1,1)"><path fill="none" stroke="#000000" d="M 330 210 L 386 210 L 386 242 L 330 242 L 330 210 Z" stroke-miterlimit="10"></path></g><g transform="scale(1,1)"><g><path fill="none" stroke="none"></path><text fill="#000000" stroke="none" font-family="Arial" font-size="13px" font-style="normal" font-weight="bold" text-decoration="none" x="345" y="229.5">Role</text></g></g><g transform="scale(1,1)"><rect fill="#C0C0C0" stroke="none" x="17" y="213" width="76" height="32" opacity="0.2"></rect></g><g transform="scale(1,1)"><rect fill="#ffffff" stroke="none" x="10" y="206" width="76" height="32"></rect></g><g transform="scale(1,1)"><path fill="none" stroke="#000000" d="M 10 206 L 86 206 L 86 238 L 10 238 L 10 206 Z" stroke-miterlimit="10"></path></g><g transform="scale(1,1)"><g><path fill="none" stroke="none"></path><text fill="#000000" stroke="none" font-family="Arial" font-size="13px" font-style="normal" font-weight="bold" text-decoration="none" x="20.5" y="225.5">Resource</text></g></g><g transform="scale(1,1)"><rect fill="#C0C0C0" stroke="none" x="157" y="121" width="72" height="32" opacity="0.2"></rect></g><g transform="scale(1,1)"><rect fill="#ffffff" stroke="none" x="150" y="114" width="72" height="32"></rect></g><g transform="scale(1,1)"><path fill="none" stroke="#000000" d="M 150 114 L 222 114 L 222 146 L 150 146 L 150 114 Z" stroke-miterlimit="10"></path></g><g transform="scale(1,1)"><g><path fill="none" stroke="none"></path><text fill="#000000" stroke="none" font-family="Arial" font-size="13px" font-style="normal" font-weight="bold" text-decoration="none" x="162.5" y="133.5">Memory</text></g></g><g transform="scale(1,1)"><path fill="none" stroke="#000000" d="M 186.16346153846155 113 L 186.83653846153845 43" stroke-miterlimit="10"></path></g><g transform="scale(1,1)"><path fill="#FFFFFF" stroke="none" d="M 195.05975778597644 63.40535870653076 L 186.83653846153845 43 L 178.22246509510092 63.24346166142618"></path></g><g transform="scale(1,1)"><path fill="none" stroke="#000000" d="M 195.05975778597644 63.40535870653076 L 186.83653846153845 43 L 178.22246509510092 63.24346166142618 L 195.05975778597644 63.40535870653076" stroke-miterlimit="10"></path></g><g transform="scale(1,1)"><path fill="none" stroke="#000000" d="M 329 209.81395348837208 L 216.45833333333337 147" stroke-miterlimit="10"></path></g><g transform="scale(1,1)"><path fill="#FFFFFF" stroke="none" d="M 227.3839341664392 148.27720258206637 L 216.45833333333337 147 L 223.28078116423183 155.62868504435465 L 235.6686827776614 157.72205550381102"></path></g><g transform="scale(1,1)"><path fill="none" stroke="#000000" d="M 227.3839341664392 148.27720258206637 L 216.45833333333337 147 L 223.28078116423183 155.62868504435465 L 235.6686827776614 157.72205550381102 L 227.3839341664392 148.27720258206637" stroke-miterlimit="10"></path></g><g transform="scale(1,1)"><g><path fill="none" stroke="none"></path><text fill="#000000" stroke="none" font-family="Arial" font-size="13px" font-style="normal" font-weight="normal" text-decoration="none" x="267" y="168">#_roles</text></g></g><g transform="scale(1,1)"><g><path fill="none" stroke="none"></path><text fill="#000000" stroke="none" font-family="Arial" font-size="13px" font-style="normal" font-weight="normal" text-decoration="none" x="294" y="219.81395348837208">0..*</text></g></g><g transform="scale(1,1)"><g><path fill="none" stroke="none"></path><text fill="#000000" stroke="none" font-family="Arial" font-size="13px" font-style="normal" font-weight="normal" text-decoration="none" x="237.45833333333337" y="153">1</text></g></g><g transform="scale(1,1)"><path fill="none" stroke="#000000" d="M 73.5 205 L 160.5 147" stroke-miterlimit="10"></path></g><g transform="scale(1,1)"><path fill="#FFFFFF" stroke="none" d="M 154.37916371872973 156.1397682256108 L 160.5 147 L 149.70912306817837 149.13470724978384 L 142.19489352456742 159.20340431695502"></path></g><g transform="scale(1,1)"><path fill="none" stroke="#000000" d="M 154.37916371872973 156.1397682256108 L 160.5 147 L 149.70912306817837 149.13470724978384 L 142.19489352456742 159.20340431695502 L 154.37916371872973 156.1397682256108" stroke-miterlimit="10"></path></g><g transform="scale(1,1)"><g><path fill="none" stroke="none"></path><text fill="#000000" stroke="none" font-family="Arial" font-size="13px" font-style="normal" font-weight="normal" text-decoration="none" x="40" y="171">#_resources</text></g></g><g transform="scale(1,1)"><g><path fill="none" stroke="none"></path><text fill="#000000" stroke="none" font-family="Arial" font-size="13px" font-style="normal" font-weight="normal" text-decoration="none" x="94.5" y="206">0..*</text></g></g><g transform="scale(1,1)"><g><path fill="none" stroke="none"></path><text fill="#000000" stroke="none" font-family="Arial" font-size="13px" font-style="normal" font-weight="normal" text-decoration="none" x="125.5" y="155">1</text></g></g><g transform="scale(1,1)"><path fill="none" stroke="#000000" d="M 354 210 L 354 182 L 414 182 L 414 226 L 386 226" stroke-miterlimit="10"></path></g><g transform="scale(1,1)"><path fill="#FFFFFF" stroke="none" d="M 396.1626748576241 221.790482243984 L 386 226 L 396.1626748576241 230.209517756016 L 408 226"></path></g><g transform="scale(1,1)"><path fill="none" stroke="#000000" d="M 396.1626748576241 221.790482243984 L 386 226 L 396.1626748576241 230.209517756016 L 408 226 L 396.1626748576241 221.790482243984" stroke-miterlimit="10"></path></g><g transform="scale(1,1)"><g><path fill="none" stroke="none"></path><text fill="#000000" stroke="none" font-family="Arial" font-size="13px" font-style="normal" font-weight="normal" text-decoration="none" x="357" y="199">0..*</text></g></g><g transform="scale(1,1)"><g><path fill="none" stroke="none"></path><text fill="#000000" stroke="none" font-family="Arial" font-size="13px" font-style="normal" font-weight="normal" text-decoration="none" x="396" y="254">0..1</text></g></g></g></svg>