<svg version="1.1" xmlns="http://www.w3.org/2000/svg" xmlns:xlink="http://www.w3.org/1999/xlink" width="419" height="255"><defs></defs><g><g transform="scale(1,1)"><rect fill="#C0C0C0" stroke="none" x="161" y="17" width="59" height="24" opacity="0.2"></rect></g><g transform="scale(1,1)"><rect fill="#ffffff" stroke="none" x="154" y="10" width="59" height="24"></rect></g><g transform="scale(1,1)"><path fill="none" stroke="#000000" d="M 154 10 L 213 10 L 213 34 L 154 34 L 154 10 Z" stroke-miterlimit="10"></path></g><g transform="scale(1,1)"><g><path fill="none" stroke="none"></path><text fill="#000000" stroke="none" font-family="Arial" font-size="13px" font-style="italic" font-weight="bold" text-decoration="none" x="161" y="29.5">Adapter</text></g></g><g transform="scale(1,1)"><rect fill="#C0C0C0" stroke="none" x="329" y="213" width="56" height="28" opacity="0.2"></rect></g><g transform="scale(1,1)"><rect fill="#ffffff" stroke="none" x="322" y="206" width="56" height="28"></rect></g><g transform="scale(1,1)"><path fill="none" stroke="#000000" d="M 322 206 L 378 206 L 378 234 L 322 234 L 322 206 Z" stroke-miterlimit="10"></path></g><g transform="scale(1,1)"><g><path fill="none" stroke="none"></path><text fill="#000000" stroke="none" font-family="Arial" font-size="13px" font-style="normal" font-weight="bold" text-decoration="none" x="337" y="225.5">Role</text></g></g><g transform="scale(1,1)"><rect fill="#C0C0C0" stroke="none" x="17" y="213" width="68" height="24" opacity="0.2"></rect></g><g transform="scale(1,1)"><rect fill="#ffffff" stroke="none" x="10" y="206" width="68" height="24"></rect></g><g transform="scale(1,1)"><path fill="none" stroke="#000000" d="M 10 206 L 78 206 L 78 230 L 10 230 L 10 206 Z" stroke-miterlimit="10"></path></g><g transform="scale(1,1)"><g><path fill="none" stroke="none"></path><text fill="#000000" stroke="none" font-family="Arial" font-size="13px" font-style="normal" font-weight="bold" text-decoration="none" x="16.5" y="225.5">Resource</text></g></g><g transform="scale(1,1)"><rect fill="#C0C0C0" stroke="none" x="161" y="121" width="60" height="24" opacity="0.2"></rect></g><g transform="scale(1,1)"><rect fill="#ffffff" stroke="none" x="154" y="114" width="60" height="24"></rect></g><g transform="scale(1,1)"><path fill="none" stroke="#000000" d="M 154 114 L 214 114 L 214 138 L 154 138 L 154 114 Z" stroke-miterlimit="10"></path></g><g transform="scale(1,1)"><g><path fill="none" stroke="none"></path><text fill="#000000" stroke="none" font-family="Arial" font-size="13px" font-style="normal" font-weight="bold" text-decoration="none" x="160.5" y="133.5">Memory</text></g></g><g transform="scale(1,1)"><path fill="none" stroke="#000000" d="M 183.875 113 L 183.125 35" stroke-miterlimit="10"></path></g><g transform="scale(1,1)"><path fill="#FFFFFF" stroke="none" d="M 191.73907336643754 55.24346166142618 L 183.125 35 L 174.901780675562 55.40535870653076"></path></g><g transform="scale(1,1)"><path fill="none" stroke="#000000" d="M 191.73907336643754 55.24346166142618 L 183.125 35 L 174.901780675562 55.40535870653076 L 191.73907336643754 55.24346166142618" stroke-miterlimit="10"></path></g><g transform="scale(1,1)"><path fill="none" stroke="#000000" d="M 323.51063829787233 205 L 206.95744680851067 139" stroke-miterlimit="10"></path></g><g transform="scale(1,1)"><path fill="#FFFFFF" stroke="none" d="M 217.87495390989682 140.34463329245682 L 206.95744680851067 139 L 213.72649079424764 147.67064262434786 L 226.10123175528577 149.84045653612566"></path></g><g transform="scale(1,1)"><path fill="none" stroke="#000000" d="M 217.87495390989682 140.34463329245682 L 206.95744680851067 139 L 213.72649079424764 147.67064262434786 L 226.10123175528577 149.84045653612566 L 217.87495390989682 140.34463329245682" stroke-miterlimit="10"></path></g><g transform="scale(1,1)"><g><path fill="none" stroke="none"></path><text fill="#000000" stroke="none" font-family="Arial" font-size="13px" font-style="normal" font-weight="normal" text-decoration="none" x="261" y="163">#_roles</text></g></g><g transform="scale(1,1)"><g><path fill="none" stroke="none"></path><text fill="#000000" stroke="none" font-family="Arial" font-size="13px" font-style="normal" font-weight="normal" text-decoration="none" x="288.51063829787233" y="215">0..*</text></g></g><g transform="scale(1,1)"><g><path fill="none" stroke="none"></path><text fill="#000000" stroke="none" font-family="Arial" font-size="13px" font-style="normal" font-weight="normal" text-decoration="none" x="227.95744680851067" y="145">1</text></g></g><g transform="scale(1,1)"><path fill="none" stroke="#000000" d="M 63.782608695652186 205 L 164.21739130434787 139" stroke-miterlimit="10"></path></g><g transform="scale(1,1)"><path fill="#FFFFFF" stroke="none" d="M 158.03616230251907 148.09903335673363 L 164.21739130434787 139 L 153.41261417229885 141.0631992455289 L 145.83187075091985 151.0819135065384"></path></g><g transform="scale(1,1)"><path fill="none" stroke="#000000" d="M 158.03616230251907 148.09903335673363 L 164.21739130434787 139 L 153.41261417229885 141.0631992455289 L 145.83187075091985 151.0819135065384 L 158.03616230251907 148.09903335673363" stroke-miterlimit="10"></path></g><g transform="scale(1,1)"><g><path fill="none" stroke="none"></path><text fill="#000000" stroke="none" font-family="Arial" font-size="13px" font-style="normal" font-weight="normal" text-decoration="none" x="37" y="167">#_resources</text></g></g><g transform="scale(1,1)"><g><path fill="none" stroke="none"></path><text fill="#000000" stroke="none" font-family="Arial" font-size="13px" font-style="normal" font-weight="normal" text-decoration="none" x="84.78260869565219" y="207">0..*</text></g></g><g transform="scale(1,1)"><g><path fill="none" stroke="none"></path><text fill="#000000" stroke="none" font-family="Arial" font-size="13px" font-style="normal" font-weight="normal" text-decoration="none" x="129.21739130434787" y="146">1</text></g></g><g transform="scale(1,1)"><path fill="none" stroke="#000000" d="M 346 206 L 346 174 L 406 174 L 406 218 L 378 218" stroke-miterlimit="10"></path></g><g transform="scale(1,1)"><path fill="#FFFFFF" stroke="none" d="M 388.1626748576241 213.790482243984 L 378 218 L 388.1626748576241 222.209517756016 L 400 218"></path></g><g transform="scale(1,1)"><path fill="none" stroke="#000000" d="M 388.1626748576241 213.790482243984 L 378 218 L 388.1626748576241 222.209517756016 L 400 218 L 388.1626748576241 213.790482243984" stroke-miterlimit="10"></path></g><g transform="scale(1,1)"><g><path fill="none" stroke="none"></path><text fill="#000000" stroke="none" font-family="Arial" font-size="13px" font-style="normal" font-weight="normal" text-decoration="none" x="349" y="195">0..*</text></g></g><g transform="scale(1,1)"><g><path fill="none" stroke="none"></path><text fill="#000000" stroke="none" font-family="Arial" font-size="13px" font-style="normal" font-weight="normal" text-decoration="none" x="388" y="246">0..1</text></g></g></g></svg>